<svg width="150" height="43" viewBox="0 0 150 43" fill="none" xmlns="http://www.w3.org/2000/svg">
<path d="M0.0514779 22.5893C-0.808762 12.7168 9.23191 4.89944 21.2194 6.1376C21.511 6.1675 21.5822 6.62426 21.2936 6.67605C11.5021 8.43557 8.46352 23.016 1.34794 23.4579C0.71574 23.4973 0.106455 23.2202 0.0514779 22.5893Z" fill="#EFA73F"/>
<path d="M0.05141 22.5893C0.0758818 22.8698 0.213696 23.0765 0.410487 23.2202C1.80971 24.0279 4.18137 21.6896 5.75055 16.8088C8.05211 9.64899 15.0958 6.29175 21.2194 6.1376C9.23191 4.89944 -0.808762 12.7168 0.0514779 22.5893H0.05141Z" fill="#EB8B2A"/>
<path d="M22.5898 42.9464C12.7173 43.8068 4.89993 33.766 6.13809 21.7785C6.16812 21.4869 6.62461 21.4158 6.6764 21.7043C8.43593 31.4958 23.0165 34.5344 23.4584 41.65C23.4976 42.2822 23.2207 42.8915 22.5898 42.9464Z" fill="#5AB2AD"/>
<path d="M22.5897 42.9463C22.8701 42.9218 23.0769 42.784 23.2207 42.5872C24.0284 41.1879 21.6901 38.8163 16.8093 37.2473C9.64948 34.9455 6.29224 27.9019 6.13809 21.7783C4.89993 33.7658 12.7173 43.8066 22.5897 42.9463Z" fill="#4E9E8F"/>
<path d="M42.9459 20.4079C43.8063 30.2805 33.7655 38.0979 21.778 36.8597C21.4864 36.8297 21.4153 36.3731 21.7038 36.3213C31.4955 34.5618 34.5339 19.9813 41.6495 19.5393C42.2817 19.5 42.891 19.777 42.9459 20.4079Z" fill="#EFA73F"/>
<path d="M42.9458 20.4079C42.9214 20.1273 42.7838 19.9208 42.5869 19.7769C41.1875 18.9693 38.8158 21.3075 37.2468 26.1884C34.9451 33.3482 27.9014 36.7055 21.7778 36.8597C33.7653 38.0979 43.806 30.2805 42.9458 20.4079H42.9458Z" fill="#EB8B2A"/>
<path d="M20.4079 0.0514779C30.2804 -0.808762 38.0978 9.23191 36.8596 21.2194C36.8297 21.511 36.3729 21.5822 36.3213 21.2937C34.5616 11.5021 19.9812 8.46346 19.5393 1.34807C19.5 0.71574 19.777 0.106455 20.4079 0.0514779Z" fill="#5AB2AD"/>
<path d="M20.4077 0.0514101C20.1271 0.0758819 19.9205 0.213561 19.7767 0.410487C18.969 1.80972 21.3074 4.18137 26.1883 5.75055C33.348 8.05211 36.7052 15.096 36.8594 21.2194C38.0975 9.23191 30.2801 -0.808762 20.4077 0.0514779L20.4077 0.0514101Z" fill="#4E9E8F"/>
<path d="M76.9989 20.4729H72.4493V19.3354C72.4493 18.7074 72.9584 18.1982 73.5866 18.1982H75.8614C76.4896 18.1982 76.9989 18.7075 76.9989 19.3354V20.4729ZM76.9989 13.6485H72.4493C69.9365 13.6485 67.8997 15.6854 67.8997 18.1982V27.2972C67.8997 29.8098 69.9365 31.8467 72.4493 31.8467H80.411V27.2972H76.9989H74.7241H73.5866C72.9584 27.2972 72.4493 26.788 72.4493 26.1598V25.0223H81.5483V18.1982C81.5483 15.6853 79.5114 13.6484 76.9988 13.6484L76.9989 13.6485Z" fill="#939598"/>
<path d="M58.8006 0H49.7015V4.5029H58.7421C59.9985 4.5029 61.0169 5.52125 61.0169 6.77755V24.9758C61.0169 26.2322 59.9985 27.2506 58.7421 27.2506H54.1926V6.82438H49.7014V31.8469H58.8006C62.5694 31.8469 65.6248 28.7915 65.6248 25.0225V6.82444C65.6248 3.05559 62.5694 6.25159e-05 58.8006 6.25159e-05L58.8006 0Z" fill="#939598"/>
<path d="M49.7351 40.8984C50.0434 41.0783 50.4853 41.1965 50.9657 41.1965C52.0088 41.1965 52.6074 40.6543 52.6074 39.8835C52.6074 39.231 52.2169 38.8508 51.4564 38.5604C50.886 38.342 50.6215 38.1803 50.6215 37.8154C50.6215 37.4891 50.886 37.2194 51.3561 37.2194C51.7646 37.2194 52.0807 37.3632 52.2528 37.4711L52.4533 36.8931C52.2091 36.7467 51.8187 36.6208 51.3742 36.6208C50.4314 36.6208 49.861 37.2014 49.861 37.9079C49.861 38.4321 50.2335 38.8688 51.0223 39.1488C51.6105 39.3672 51.8367 39.5752 51.8367 39.9555C51.8367 40.3178 51.5644 40.6081 50.9837 40.6081C50.5855 40.6081 50.1693 40.4437 49.9331 40.2895L49.7352 40.8983L49.7351 40.8984ZM58.7425 41.1066C58.6886 40.8085 58.6705 40.436 58.6705 40.0558V38.4141C58.6705 37.5355 58.3443 36.6208 57.0031 36.6208C56.4508 36.6208 55.9241 36.775 55.5619 37.0088L55.7442 37.5355C56.0499 37.335 56.4764 37.2092 56.8849 37.2092C57.7815 37.2092 57.8818 37.8618 57.8818 38.224V38.3139C56.1861 38.3063 55.2432 38.8868 55.2432 39.9454C55.2432 40.58 55.698 41.2067 56.5869 41.2067C57.2112 41.2067 57.6813 40.8985 57.928 40.5542H57.9536L58.0179 41.1066H58.7424H58.7425ZM57.8999 39.6294C57.8999 39.7115 57.8819 39.8014 57.8535 39.8836C57.7276 40.2537 57.3655 40.6158 56.7951 40.6158C56.3866 40.6158 56.0424 40.3718 56.0424 39.8553C56.0424 39.005 57.0288 38.8508 57.8999 38.8688V39.6294ZM65.5841 36.7211H64.7876V39.411C64.7876 39.5574 64.7594 39.7012 64.7156 39.8195C64.5693 40.174 64.1993 40.544 63.6624 40.544C62.9379 40.544 62.6835 39.9838 62.6835 39.1489V36.7211H61.887V39.2851C61.887 40.8266 62.7117 41.2067 63.4003 41.2067C64.1787 41.2067 64.6412 40.7443 64.8518 40.3897H64.8698L64.9135 41.1067H65.62C65.5942 40.7624 65.5841 40.3641 65.5841 39.9094V36.7211L65.5841 36.7211ZM64.1608 34.825L63.3643 36.1225H63.9347L65.042 34.825H64.1608H64.1608ZM71.8578 34.6709V37.2914H71.8399C71.6394 36.9368 71.1874 36.6208 70.5168 36.6208C69.4455 36.6208 68.5412 37.5175 68.5489 38.9767C68.5489 40.3101 69.3659 41.2066 70.4244 41.2066C71.1411 41.2066 71.6755 40.8341 71.9197 40.3461H71.9376L71.9762 41.1066H72.6903C72.6647 40.8085 72.6544 40.3641 72.6544 39.9736V34.6709H71.8579H71.8578ZM71.8578 39.2671C71.8578 39.393 71.8476 39.5035 71.822 39.6113C71.6755 40.2099 71.1874 40.5619 70.653 40.5619C69.7897 40.5619 69.3555 39.8297 69.3555 38.9408C69.3555 37.9696 69.8462 37.2451 70.6709 37.2451C71.2669 37.2451 71.7036 37.6613 71.822 38.17C71.8476 38.2703 71.8578 38.4063 71.8578 38.5066V39.2671ZM79.4625 39.0591C79.4703 38.9768 79.4882 38.8509 79.4882 38.6864C79.4882 37.8798 79.1079 36.6209 77.6769 36.6209C76.3976 36.6209 75.6191 37.6614 75.6191 38.9845C75.6191 40.3102 76.4258 41.1965 77.7773 41.1965C78.4734 41.1965 78.9538 41.0526 79.2365 40.9242L79.1003 40.3538C78.7997 40.4824 78.4555 40.58 77.8851 40.58C77.0886 40.58 76.3976 40.138 76.3796 39.0591H79.4626H79.4625ZM76.3898 38.4861C76.4541 37.9338 76.806 37.1913 77.6128 37.1913C78.5093 37.1913 78.7277 37.9801 78.7199 38.4861H76.3898ZM87.1108 41.1067V36.7211H86.3143V41.1067H87.1108ZM86.7126 34.9895C86.4222 34.9895 86.214 35.2053 86.214 35.4879C86.214 35.7602 86.4119 35.976 86.6945 35.976C87.0105 35.976 87.211 35.7602 87.2007 35.4879C87.2007 35.2053 87.0106 34.9895 86.7126 34.9895H86.7126ZM90.394 41.1067H91.1905V38.468C91.1905 38.332 91.2085 38.1983 91.2446 38.0981C91.3806 37.6537 91.7891 37.2812 92.3131 37.2812C93.066 37.2812 93.3306 37.872 93.3306 38.5786V41.1067H94.1271V38.4861C94.1271 36.9832 93.1842 36.621 92.5779 36.621C91.8534 36.621 91.3447 37.0269 91.1263 37.4457H91.1084L91.0646 36.7212H90.3557C90.3839 37.0834 90.3941 37.4534 90.3941 37.9081V41.1067L90.394 41.1067ZM97.5619 35.6677V36.7211H96.8836V37.3274H97.5619V39.7193C97.5619 40.2356 97.6441 40.6262 97.8702 40.8624C98.0603 41.0784 98.3608 41.1965 98.7309 41.1965C99.0391 41.1965 99.2832 41.1528 99.4373 41.0885L99.4013 40.4899C99.3011 40.5181 99.147 40.544 98.9389 40.544C98.4945 40.544 98.3404 40.2356 98.3404 39.6935V37.3274H99.4837V36.7211H98.3404V35.4597L97.5619 35.6677ZM105.811 39.0591C105.819 38.9768 105.837 38.8509 105.837 38.6864C105.837 37.8798 105.456 36.6209 104.025 36.6209C102.746 36.6209 101.968 37.6614 101.968 38.9845C101.968 40.3102 102.774 41.1965 104.126 41.1965C104.822 41.1965 105.302 41.0526 105.585 40.9242L105.449 40.3538C105.148 40.4824 104.804 40.58 104.234 40.58C103.437 40.58 102.746 40.138 102.728 39.0591H105.811H105.811ZM102.738 38.4861C102.803 37.9338 103.155 37.1913 103.961 37.1913C104.858 37.1913 105.076 37.9801 105.069 38.4861H102.738ZM108.783 41.1067H109.58V34.671H108.783V41.1067ZM113.678 41.1067V36.7211H112.881V41.1067H113.678ZM113.279 34.9895C112.989 34.9895 112.781 35.2053 112.781 35.4879C112.781 35.7602 112.979 35.976 113.261 35.976C113.577 35.976 113.778 35.7602 113.768 35.4879C113.768 35.2053 113.577 34.9895 113.279 34.9895ZM120.041 36.7211L120.005 37.3814H119.987C119.797 37.0191 119.379 36.6209 118.618 36.6209C117.614 36.6209 116.642 37.4637 116.642 38.9485C116.642 40.1638 117.421 41.0886 118.51 41.0886C119.188 41.0886 119.661 40.7624 119.905 40.3538H119.923V40.8446C119.923 41.9493 119.325 42.3757 118.51 42.3757C117.966 42.3757 117.513 42.2114 117.223 42.0315L117.023 42.6378C117.377 42.8741 117.958 43 118.482 43C119.034 43 119.651 42.8741 120.077 42.4759C120.504 42.0957 120.704 41.4792 120.704 40.472V37.926C120.704 37.3916 120.722 37.0371 120.74 36.7211H120.041L120.041 36.7211ZM119.915 39.2389C119.915 39.3751 119.897 39.5292 119.851 39.6653C119.679 40.174 119.235 40.4824 118.746 40.4824C117.883 40.4824 117.449 39.7654 117.449 38.9049C117.449 37.8901 117.994 37.2451 118.754 37.2451C119.335 37.2451 119.725 37.6254 119.869 38.0879C119.905 38.1983 119.915 38.3138 119.915 38.4501V39.2389ZM127.51 39.0591C127.518 38.9768 127.536 38.8509 127.536 38.6864C127.536 37.8798 127.155 36.6209 125.724 36.6209C124.445 36.6209 123.666 37.6614 123.666 38.9845C123.666 40.3102 124.473 41.1965 125.824 41.1965C126.521 41.1965 127.001 41.0526 127.284 40.9242L127.148 40.3538C126.847 40.4824 126.503 40.58 125.932 40.58C125.136 40.58 124.445 40.138 124.427 39.0591H127.51H127.51ZM124.437 38.4861C124.501 37.9338 124.853 37.1913 125.66 37.1913C126.557 37.1913 126.775 37.9801 126.767 38.4861H124.437ZM130.482 41.1067H131.279V38.468C131.279 38.332 131.297 38.1983 131.333 38.0981C131.469 37.6537 131.877 37.2812 132.401 37.2812C133.154 37.2812 133.419 37.872 133.419 38.5786V41.1067H134.215V38.4861C134.215 36.9832 133.272 36.621 132.666 36.621C131.942 36.621 131.433 37.0269 131.215 37.4457H131.196L131.153 36.7212H130.444C130.472 37.0834 130.482 37.4534 130.482 37.9081V41.1067L130.482 41.1067ZM137.65 35.6677V36.7211H136.972V37.3274H137.65V39.7193C137.65 40.2356 137.732 40.6262 137.958 40.8624C138.148 41.0784 138.449 41.1965 138.819 41.1965C139.127 41.1965 139.371 41.1528 139.526 41.0885L139.49 40.4899C139.389 40.5181 139.235 40.544 139.027 40.544C138.583 40.544 138.429 40.2356 138.429 39.6935V37.3274H139.572V36.7211H138.429V35.4597L137.65 35.6677ZM145.898 39.0591C145.906 38.9768 145.924 38.8509 145.924 38.6864C145.924 37.8798 145.544 36.6209 144.113 36.6209C142.833 36.6209 142.055 37.6614 142.055 38.9845C142.055 40.3102 142.862 41.1965 144.213 41.1965C144.909 41.1965 145.39 41.0526 145.672 40.9242L145.536 40.3538C145.236 40.4824 144.891 40.58 144.321 40.58C143.524 40.58 142.833 40.138 142.815 39.0591H145.898H145.898ZM142.826 38.4861C142.89 37.9338 143.242 37.1913 144.048 37.1913C144.945 37.1913 145.163 37.9801 145.156 38.4861H142.826Z" fill="#939598"/>
<path d="M145.242 27.2975H141.83C141.202 27.2975 140.692 26.7882 140.692 26.1601C140.692 25.532 141.202 25.0227 141.83 25.0227H145.242V27.2975V27.2975ZM145.242 13.6489H137.28V18.1984H140.692H142.967H144.104C144.733 18.1984 145.242 18.7077 145.242 19.3359V20.4732H140.692C138.18 20.4732 136.143 22.5101 136.143 25.0228V27.2976C136.143 29.8102 138.18 31.8471 140.692 31.8471H149.791V18.1985C149.791 15.6859 147.754 13.649 145.242 13.649L145.242 13.6489Z" fill="#939598"/>
<path d="M111.12 20.4729C111.12 24.242 108.065 27.2973 104.296 27.2973V6.82444H99.7463V31.8467H104.296C110.578 31.8467 115.67 26.7545 115.67 20.4729V0H111.12V20.4729V20.4729Z" fill="#939598"/>
<path d="M92.9222 26.1597C92.9222 26.7879 92.4128 27.2972 91.7847 27.2972H89.51C88.8817 27.2972 88.3725 26.7879 88.3725 26.1597V19.3353C88.3725 18.7074 88.8817 18.1982 89.51 18.1982H91.7847C92.4128 18.1982 92.9222 18.7074 92.9222 19.3353V26.1597ZM92.9222 13.6484H88.3725C85.8599 13.6484 83.823 15.6853 83.823 18.1982V27.2972C83.823 29.8098 85.8599 31.8467 88.3725 31.8467H92.9222C95.4348 31.8467 97.4717 29.8098 97.4717 27.2972V18.1982C97.4717 15.6853 95.4348 13.6484 92.9222 13.6484Z" fill="#939598"/>
<path d="M117.945 31.847H122.494V13.6489H117.945V31.847Z" fill="#939598"/>
<path d="M117.945 11.3741H122.494V6.82471H117.945V11.3741Z" fill="#939598"/>
<path d="M129.377 6.82422H124.769V25.0224C124.769 28.7915 127.824 31.8468 131.593 31.8468H133.868V27.2504H131.652C130.395 27.2504 129.377 26.232 129.377 24.9756V18.1981H133.868V13.6485H129.377V6.82422H129.377Z" fill="#939598"/>
</svg>
