<?xml version="1.0" encoding="UTF-8"?>
<!DOCTYPE svg PUBLIC "-//W3C//DTD SVG 1.0//EN" "http://www.w3.org/TR/2001/REC-SVG-20010904/DTD/svg10.dtd">
<!-- Creator: CorelDRAW -->
<svg xmlns="http://www.w3.org/2000/svg" xml:space="preserve" width="11.3764mm" height="11.3766mm" version="1.0" style="shape-rendering:geometricPrecision; text-rendering:geometricPrecision; image-rendering:optimizeQuality; fill-rule:evenodd; clip-rule:evenodd"
viewBox="0 0 399.95 399.96"
 xmlns:xlink="http://www.w3.org/1999/xlink"
 xmlns:xodm="http://www.corel.com/coreldraw/odm/2003">
 <defs>
  <style type="text/css">
   <![CDATA[
    .fil3 {fill:#4E9E8F;fill-rule:nonzero}
    .fil2 {fill:#5AB2AD;fill-rule:nonzero}
    .fil1 {fill:#EB8B2A;fill-rule:nonzero}
    .fil0 {fill:#EFA73F;fill-rule:nonzero}
   ]]>
  </style>
 </defs>
 <g id="Camada_x0020_1">
  <metadata id="CorelCorpID_0Corel-Layer"/>
  <path class="fil0" d="M0.48 210.12c-8,-91.83 85.39,-164.54 196.9,-153.02 2.71,0.28 3.37,4.52 0.69,5.01 -91.08,16.37 -119.34,151.99 -185.53,156.1 -5.88,0.37 -11.55,-2.21 -12.06,-8.08z"/>
  <path class="fil1" d="M0.48 210.12c0.22,2.61 1.51,4.53 3.34,5.87 13.01,7.51 35.08,-14.23 49.67,-59.63 21.41,-66.6 86.93,-97.83 143.89,-99.26 -111.5,-11.52 -204.9,61.2 -196.9,153.02l0 0z"/>
  <path class="fil2" d="M210.12 399.48c-91.83,8 -164.54,-85.39 -153.02,-196.9 0.28,-2.71 4.52,-3.37 5.01,-0.69 16.37,91.08 151.99,119.34 156.1,185.53 0.36,5.88 -2.21,11.55 -8.08,12.06z"/>
  <path class="fil3" d="M210.12 399.47c2.61,-0.22 4.53,-1.51 5.87,-3.34 7.51,-13.01 -14.24,-35.08 -59.64,-49.67 -66.6,-21.41 -97.83,-86.93 -99.26,-143.89 -11.52,111.5 61.2,204.9 153.02,196.9z"/>
  <path class="fil0" d="M399.47 189.83c8.01,91.83 -85.39,164.54 -196.9,153.03 -2.71,-0.28 -3.37,-4.52 -0.69,-5.01 91.08,-16.37 119.34,-151.99 185.53,-156.1 5.88,-0.37 11.55,2.21 12.06,8.08z"/>
  <path class="fil1" d="M399.47 189.83c-0.23,-2.61 -1.51,-4.53 -3.34,-5.87 -13.01,-7.51 -35.08,14.24 -49.67,59.64 -21.41,66.6 -86.93,97.83 -143.89,99.26 111.5,11.52 204.9,-61.2 196.9,-153.03l0 0z"/>
  <path class="fil2" d="M189.83 0.48c91.83,-8 164.54,85.39 153.03,196.9 -0.28,2.71 -4.53,3.37 -5.01,0.69 -16.37,-91.08 -151.99,-119.34 -156.1,-185.53 -0.37,-5.88 2.21,-11.55 8.08,-12.06z"/>
  <path class="fil3" d="M189.83 0.48c-2.61,0.22 -4.53,1.51 -5.87,3.34 -7.51,13.01 14.24,35.08 59.64,49.67 66.6,21.41 97.83,86.93 99.26,143.89 11.52,-111.5 -61.2,-204.9 -153.02,-196.9l0 0z"/>
 </g>
</svg>
